<svg width="24" height="24" viewBox="0 0 24 24" fill="none" xmlns="http://www.w3.org/2000/svg">
<path d="M12 2C6.477 2 2 6.477 2 12C2 17.523 6.477 22 12 22C17.523 22 22 17.523 22 12C22 6.477 17.523 2 12 2ZM6.858 18.752C7.463 16.884 9.58 15.512 12 15.512C14.42 15.512 16.537 16.884 17.142 18.752C15.712 19.844 13.933 20.5 12 20.5C10.067 20.5 8.288 19.844 6.858 18.752ZM18.327 17.657C17.307 15.492 14.844 14.012 12 14.012C9.156 14.012 6.693 15.492 5.673 17.657C4.27466 16.1046 3.50057 14.0894 3.5 12C3.5 7.313 7.313 3.5 12 3.5C16.687 3.5 20.5 7.313 20.5 12C20.4994 14.0894 19.7253 16.1046 18.327 17.657ZM12 6C11.5404 6 11.0852 6.09053 10.6606 6.26642C10.236 6.44231 9.85013 6.70012 9.52513 7.02513C9.20012 7.35013 8.94231 7.73597 8.76642 8.16061C8.59053 8.58525 8.5 9.04037 8.5 9.5C8.5 9.95963 8.59053 10.4148 8.76642 10.8394C8.94231 11.264 9.20012 11.6499 9.52513 11.9749C9.85013 12.2999 10.236 12.5577 10.6606 12.7336C11.0852 12.9095 11.5404 13 12 13C12.9283 13 13.8185 12.6313 14.4749 11.9749C15.1313 11.3185 15.5 10.4283 15.5 9.5C15.5 8.57174 15.1313 7.6815 14.4749 7.02513C13.8185 6.36875 12.9283 6 12 6ZM12 11.5C10.897 11.5 10 10.603 10 9.5C10 8.397 10.897 7.5 12 7.5C13.103 7.5 14 8.397 14 9.5C14 10.603 13.103 11.5 12 11.5Z" fill="white"/>
</svg>
