<svg width="24" height="24" viewBox="0 0 24 24" fill="none" xmlns="http://www.w3.org/2000/svg">
<path d="M12 20.5C9.74566 20.5 7.58365 19.6045 5.98959 18.0104C4.39553 16.4163 3.5 14.2543 3.5 12C3.5 9.74566 4.39553 7.58365 5.98959 5.98959C7.58365 4.39553 9.74566 3.5 12 3.5C14.2543 3.5 16.4163 4.39553 18.0104 5.98959C19.6045 7.58365 20.5 9.74566 20.5 12C20.5 14.2543 19.6045 16.4163 18.0104 18.0104C16.4163 19.6045 14.2543 20.5 12 20.5ZM12 22C17.523 22 22 17.523 22 12C22 6.477 17.523 2 12 2C6.477 2 2 6.477 2 12C2 17.523 6.477 22 12 22ZM12 16C11.7348 16 11.4804 16.1054 11.2929 16.2929C11.1054 16.4804 11 16.7348 11 17C11 17.2652 11.1054 17.5196 11.2929 17.7071C11.4804 17.8946 11.7348 18 12 18C12.2652 18 12.5196 17.8946 12.7071 17.7071C12.8946 17.5196 13 17.2652 13 17C13 16.7348 12.8946 16.4804 12.7071 16.2929C12.5196 16.1054 12.2652 16 12 16ZM12.053 12.467C12.3396 12.1881 12.6471 11.9317 12.973 11.7C13.2354 11.5141 13.4847 11.3103 13.719 11.09C13.9103 10.9067 14.0686 10.6919 14.187 10.455C14.313 10.202 14.375 9.907 14.375 9.572C14.375 9.198 14.293 8.849 14.129 8.524C13.971 8.2 13.714 7.936 13.358 7.732C13.002 7.529 12.548 7.427 11.996 7.427C11.421 7.427 10.951 7.543 10.585 7.774C10.2378 7.9835 9.96291 8.29401 9.797 8.664C9.737 8.798 9.687 8.936 9.649 9.077C9.538 9.491 9.204 9.844 8.775 9.844C8.347 9.844 7.991 9.494 8.065 9.072C8.135 8.665 8.265 8.282 8.451 7.922C8.752 7.339 9.209 6.874 9.821 6.528C10.435 6.176 11.185 6 12.07 6C13 6 13.757 6.181 14.343 6.544C14.933 6.902 15.357 7.347 15.614 7.881C15.871 8.414 16 8.951 16 9.489C16 10.034 15.915 10.501 15.746 10.892C15.576 11.277 15.371 11.59 15.13 11.832C14.895 12.074 14.58 12.346 14.187 12.649C13.875 12.896 13.626 13.109 13.44 13.284C13.26 13.46 13.11 13.669 12.989 13.911C12.939 14.01 12.902 14.111 12.876 14.213C12.768 14.637 12.454 15 12.016 15C11.579 15 11.21 14.644 11.256 14.21C11.3201 13.5564 11.6006 12.943 12.053 12.467Z" fill="white"/>
</svg>
