<svg width="24" height="24" viewBox="0 0 24 24" fill="none" xmlns="http://www.w3.org/2000/svg">
<path d="M22 12C22 17.523 17.523 22 12 22C6.477 22 2 17.523 2 12C2 6.477 6.477 2 12 2C17.523 2 22 6.477 22 12ZM9.254 20.047C8.95403 19.6136 8.69682 19.1521 8.486 18.669C8.082 17.759 7.764 16.684 7.551 15.5H4.251C4.73084 16.559 5.42219 17.5086 6.28256 18.2906C7.14293 19.0725 8.15412 19.6702 9.254 20.047ZM9.857 18.059C10.193 18.816 10.575 19.383 10.96 19.749C11.342 20.113 11.692 20.25 12 20.25C12.308 20.25 12.658 20.113 13.04 19.75C13.425 19.383 13.807 18.816 14.143 18.06C14.464 17.337 14.731 16.47 14.923 15.5H9.076C9.268 16.47 9.535 17.337 9.856 18.06L9.857 18.059ZM8.75 12C8.75 12.691 8.786 13.36 8.853 14H15.147C15.214 13.36 15.25 12.691 15.25 12C15.25 11.309 15.214 10.64 15.147 10H8.853C8.786 10.64 8.75 11.309 8.75 12ZM7.345 10H3.737C3.57922 10.655 3.49967 11.3263 3.5 12C3.5 12.689 3.582 13.359 3.737 14H7.345C7.21619 12.6698 7.21619 11.3302 7.345 10ZM9.077 8.5H14.922C14.732 7.53 14.464 6.663 14.143 5.94C13.807 5.184 13.425 4.617 13.04 4.25C12.658 3.887 12.308 3.75 12 3.75C11.692 3.75 11.342 3.887 10.96 4.25C10.575 4.617 10.193 5.184 9.857 5.94C9.536 6.663 9.269 7.53 9.077 8.5ZM16.654 10C16.783 11.3302 16.783 12.6698 16.654 14H20.264C20.4215 13.345 20.5007 12.6737 20.5 12C20.5003 11.3263 20.4208 10.655 20.263 10H16.654ZM19.748 8.5C19.2683 7.44113 18.5771 6.49154 17.7169 5.7096C16.8567 4.92765 15.8457 4.32988 14.746 3.953C15.033 4.361 15.289 4.826 15.514 5.331C15.918 6.241 16.236 7.316 16.449 8.5H19.749H19.748ZM7.551 8.5C7.764 7.316 8.082 6.24 8.486 5.331C8.711 4.826 8.966 4.361 9.254 3.953C8.15431 4.32988 7.1433 4.92765 6.28312 5.7096C5.42293 6.49154 4.73173 7.44113 4.252 8.5H7.551ZM15.514 18.669C15.289 19.174 15.034 19.639 14.746 20.047C15.8457 19.6701 16.8567 19.0723 17.7169 18.2904C18.5771 17.5085 19.2683 16.5589 19.748 15.5H16.448C16.236 16.684 15.918 17.76 15.514 18.669Z" fill="white"/>
</svg>
